<?xml version="1.0" encoding="iso-8859-1"?>
<!-- Uploaded to: SVG Repo, www.svgrepo.com, Generator: SVG Repo Mixer Tools -->
<svg fill="#000000" height="800px" width="800px" version="1.1" id="Layer_1" xmlns="http://www.w3.org/2000/svg" xmlns:xlink="http://www.w3.org/1999/xlink" 
	 viewBox="0 0 512 512" xml:space="preserve">
<g>
	<g>
		<path d="M490.667,181.333v-42.667c0-11.776-9.557-21.333-21.333-21.333c0-35.285-28.715-64-64-64c-35.285,0-64,28.715-64,64
			c-11.776,0-21.333,9.557-21.333,21.333v42.667h-85.333v-42.667c0-20.885-7.851-41.109-22.08-56.939
			c-4.053-4.48-9.813-7.061-15.851-7.061c-6.059,0-11.819,2.56-15.851,7.061c-16.597,18.411-46.507,18.411-63.104,0
			c-4.032-4.501-9.792-7.061-15.851-7.061c-6.037,0-11.797,2.581-15.851,7.061C71.851,97.557,64,117.781,64,138.667v42.667H21.333
			C9.557,181.333,0,190.891,0,202.667v64C0,278.443,9.557,288,21.333,288v128c0,23.531,19.136,42.667,42.667,42.667h384
			c23.531,0,42.667-19.136,42.667-42.667V288c11.797,0,21.333-9.557,21.333-21.333v-64C512,190.891,502.464,181.333,490.667,181.333
			z M405.333,96c11.755,0,21.333,9.579,21.333,21.333H384C384,105.579,393.579,96,405.333,96z M469.333,245.333H42.667V224h42.667
			h128h128h128V245.333z"/>
	</g>
</g>
</svg>